<?xml version="1.0" encoding="UTF-8"?> <!-- Generator: Adobe Illustrator 23.0.6, SVG Export Plug-In . SVG Version: 6.00 Build 0) --> <svg xmlns="http://www.w3.org/2000/svg" xmlns:xlink="http://www.w3.org/1999/xlink" version="1.1" id="Calque_1" x="0px" y="0px" viewBox="0 0 198.7 72.2" style="enable-background:new 0 0 198.7 72.2;" xml:space="preserve"> <style type="text/css"> .st0{fill:#E63312;} .st1{fill:#969BA6;} </style> <path d="M44.8,3.2c0.8-0.5,1.5-1,2.2-1.8c0.5-0.6-1.8-0.3-2.4,0.2c-0.6,0.5-1.2,1.1-1.8,1.8C42.4,3.8,44,3.7,44.8,3.2 M88.2,15.5 c0.4,0.2,0.4-1.1-0.4-1.6c-3.1-1.9-11.4,1.4-14.5,1.8c-0.6,0.1-0.8-0.1-0.7-0.5c0.3-0.8,1.3-2.2,1.5-2.7c0.2-0.5,0.2-2.1-2.2-2.1 c-1.9,0-3.7,0.9-5,2c-1.2,1-3.5,3-4.9,3c-1.5,0,2.9-4.5,3.1-4.7c0.6-0.6-1.4-0.4-2.2,0.2c-0.3,0.3-1.7,1.7-2.5,3.1 c-2.5,1.7-4.9,2.1-3.7,0.7c0.6-0.8,1.7-1.8,2.4-2.6c1-1.1,0.8-1.9-1.4-1.9c-3,0-3.3,0.3-5,2.2c-0.3,0.4-0.2,1.3,0.2,1 c2-2,2-1.8,4.6-1.8c-0.4,0.5-1.2,0.9-2.5,2.6c-1.2,1.5-0.4,2.7,1.2,2.7c0.9,0,2.3-0.4,3.5-1.3c-0.2,0.8,0.2,1.3,1.3,1.3 c1.3,0,2.9-0.8,4.2-1.7c-0.2,1,0.3,1.7,1.8,1.7c1.1,0,2.4-0.4,3.7-1.6c0,0.9,0.6,1.6,1.8,1.6C75.2,17,84.9,13.5,88.2,15.5 M67.7,15.8c-1.8,0,1.8-4.2,4.2-4.2C73.3,11.6,69.4,15.8,67.7,15.8 M66.2,9.3C66.9,8.8,68.3,7.7,69,7c0.5-0.6-1.8-0.3-2.4,0.2 C66,7.7,65,8.7,64.4,9.4C64.1,9.8,65.4,9.7,66.2,9.3 M51.7,13.7c-0.7,0.7-2.3,1.9-3.7,1.9c-1,0,1-1.8,2-3.3c1-1.4,0.2-1.8-0.6-1.8 c-2,0-3.9,1.4-5.2,2.4c0.4-0.5,1-1.2,1.7-2.1c0.4-0.5-1.8-0.3-2.4,0.4c-0.2,0.2-0.4,0.5-0.6,0.8c-1.9,2.3-4.7,3.8-6.1,3.8 c-0.8,0-1.1-0.5-0.6-1.6c1.2-2.4,5.2-7.1,7.4-9.1c1-0.9-2-0.6-2.7,0.1c-3,3-6.1,6.4-6.9,9.1c-0.5,1.5,0,2.8,1.8,2.8 c1.5,0,3.1-0.7,4.5-1.6c-0.3,0.5-0.7,0.9-0.9,1.2c-0.4,0.5,1.6,0.3,2-0.2c1.6-2,5.4-4.5,6.5-4.5c1,0-2.4,2.5-2.3,4 c0,2,4.7,0.8,6.3-1.3C52.1,14.4,51.9,13.5,51.7,13.7"></path> <path class="st0" d="M168.8,66.1v-5.2c3.2-0.1,4.9-1.5,5.9-3.8l0.4-1L166.8,33h5.2l3.9,11.5l1.5,4.8l1.5-4.8l3.8-11.5h5.2l-9,25.3 C176.9,63.8,174.1,66.1,168.8,66.1"></path> <path class="st0" d="M44.3,44.6c0,3.9,1.3,5.8,4.4,5.8c1.5,0,3.4-0.4,5.7-1.2l1.5,4.4c-2.7,1.1-5.1,1.6-7.4,1.6 c-6.1,0-9.3-4.2-9.3-10.6v-2.7c0-6.4,3.3-10.6,9.3-10.6c2.3,0,4.6,0.5,7.2,1.6l-1.5,4.5c-2.2-0.9-4-1.3-5.4-1.3 c-3.1,0-4.4,1.9-4.4,5.8V44.6z"></path> <path class="st0" d="M71.6,51.7c-2.6,2.4-4.9,3.5-7.7,3.5c-4,0-5.9-2.9-5.9-6.9s2-6.8,7.9-6.8c1.6,0,3.3,0.2,5,0.5v-2.7 c0-2.5-1.5-3.3-3.8-3.3c-1.8,0-4,0.5-6.4,1.5l-1.5-4.4c3.1-1.3,5.8-1.9,8.3-1.9c6.7,0,8.5,3.8,8.5,8.1v8.8c0,0.9,0.4,1.9,1.9,1.9 h0.5V55h-1C74.2,55,72.4,53.5,71.6,51.7 M65.2,50.9c1.4,0,3-0.4,5.8-3.1v-2c-1.6-0.3-3.1-0.4-4.6-0.4c-2.4,0-3.3,1-3.3,2.8 C63,49.9,63.8,50.9,65.2,50.9"></path> <path class="st0" d="M95.6,51.6c-2.8,2.8-4.6,3.6-6.8,3.6c-5,0-7.8-4-7.8-10.7v-2.5c0-6.6,3.4-10.8,9.7-10.8c1.5,0,3.1,0.3,4.6,0.9 v-11h5.2v33.6h-4.9L95.6,51.6L95.6,51.6z M90.3,50.4c1.4,0,2.8-0.6,5.1-3V36.9c-1.5-0.6-2.8-0.9-4.1-0.9c-3.5,0-4.9,2.3-4.9,6.1v2.5 C86.4,48.5,87.8,50.4,90.3,50.4"></path> <path class="st0" d="M116.1,55.2c-6.8,0-10.4-4.2-10.4-10.6v-2.7c0-6.4,3.7-10.6,9.7-10.6c4.8,0,9.3,2.9,9.3,9.3 c0,1.3-0.2,2.7-0.6,4.3h-13.3c0.1,3.8,1.8,5.6,5.6,5.6c2,0,4.3-0.5,6.6-1.5l1.5,4.4C121.3,54.7,118.6,55.2,116.1,55.2 M110.8,40.9 h8.7c0.1-0.3,0.1-0.5,0.1-0.8c0-2.9-1.9-4.3-4.2-4.3C112.6,35.7,111,37.6,110.8,40.9"></path> <rect x="143.4" y="38.1" class="st0" width="5.2" height="16.3"></rect> <rect x="136.3" y="33.1" class="st0" width="5.2" height="5.1"></rect> <rect x="150.4" y="33.1" class="st0" width="5.2" height="5.1"></rect> <rect x="157.5" y="38.1" class="st0" width="5.2" height="16.3"></rect> <rect x="129.5" y="38.1" class="st0" width="5.2" height="16.3"></rect> <path class="st0" d="M30.2,48.6H19.6l-1.9,6h-5.4l10.3-31h4.8l10.4,31h-5.7L30.2,48.6z M21.2,43.6h7.5l-1.4-4.5L25,31.3l-2.4,7.8 L21.2,43.6z"></path> <rect x="189.1" y="14.9" class="st1" width="2" height="2"></rect> <rect x="191.1" y="16.8" class="st1" width="2" height="2"></rect> <rect x="193.1" y="18.8" class="st1" width="2" height="2"></rect> <rect x="97.5" y="12.9" class="st1" width="91.6" height="2"></rect> <polygon class="st1" points="195.1,20.7 195.1,68.8 3.8,68.8 3.8,14.9 27,14.9 27,12.9 1.8,12.9 1.8,70.8 197.1,70.8 197.1,20.7 "></polygon> </svg> 